# Blender 3.3.0
# www.blender.org
mtllib vase.mtl
o Cylinder
v 0.091967 2.714562 -0.719399
v 0.378554 2.714668 -0.573501
v 0.564514 2.714603 -0.319692
v 0.638550 2.714228 -0.089449
v 0.564514 2.714603 0.140794
v 0.378554 2.714668 0.394602
v 0.091967 2.714562 0.540501
v -0.354749 2.714458 0.472518
v -0.631389 2.714603 0.140794
v -0.705425 2.714228 -0.089449
v -0.631389 2.714603 -0.319692
v -0.354749 2.714458 -0.651416
v 0.107837 2.714571 -0.799222
v 0.430693 2.714664 -0.634843
v 0.640207 2.714588 -0.348877
v 0.640207 2.714588 0.169978
v 0.430693 2.714664 0.455945
v 0.107837 2.714571 0.620324
v -0.395401 2.714421 0.543708
v -0.707083 2.714588 0.169978
v -0.707083 2.714588 -0.348876
v -0.395401 2.714421 -0.722607
v 0.310929 2.484052 0.354843
v 0.516182 2.484037 -0.089449
v 0.310929 2.484052 -0.533741
v -0.088350 2.484049 -0.646622
v -0.541933 2.484043 -0.314906
v -0.541933 2.484043 0.136008
v -0.376087 2.484039 0.343055
v -0.088350 2.484049 0.467724
v 0.491900 2.484038 0.079919
v 0.491900 2.484038 -0.258817
v -0.376087 2.484039 -0.521953
v -0.583057 2.484037 -0.089449
v -0.177766 2.493760 -0.564853
v 0.189324 2.493732 -0.535672
v 0.417864 2.493840 -0.289517
v 0.454416 2.493930 -0.089449
v 0.417864 2.493840 0.110619
v 0.189324 2.493732 0.356774
v -0.177766 2.493760 0.385954
v -0.466725 2.493712 0.157889
v -0.466725 2.493712 -0.336788
v 0.200268 0.121044 -0.844439
v 0.099635 -0.000152 -0.757863
v 0.471582 0.121043 -0.697586
v 0.705153 0.120682 -0.388429
v 0.556844 -0.000638 -0.458511
v 0.638477 0.000000 -0.089449
v 0.753751 0.121419 -0.089449
v 0.705153 0.120682 0.209531
v 0.471582 0.121043 0.518688
v 0.556844 -0.000638 0.279612
v 0.200268 0.121044 0.665540
v 0.099635 -0.000152 0.578964
v -0.189295 0.125684 0.693578
v -0.538457 0.121043 0.518687
v -0.374372 -0.000272 0.506787
v -0.772028 0.120682 0.209531
v -0.667928 -0.000118 0.154843
v -0.705352 0.000000 -0.089449
v -0.820626 0.121419 -0.089449
v -0.772028 0.120682 -0.388429
v -0.667928 -0.000118 -0.333741
v -0.538457 0.121043 -0.697586
v -0.189295 0.125684 -0.872476
v -0.374372 -0.000272 -0.685685
v 0.233405 2.122681 -0.987580
v 0.169001 1.813952 -1.106508
v 0.557013 2.122677 -0.817161
v 0.631572 1.813913 -0.870892
v 0.835805 2.123798 -0.457928
v 0.931838 1.813948 -0.461182
v 0.900112 2.121843 -0.089449
v 0.988615 1.813901 -0.089449
v 0.835805 2.123798 0.279030
v 0.931838 1.813948 0.282284
v 0.557013 2.122677 0.638263
v 0.631572 1.813913 0.691993
v 0.233405 2.122681 0.808681
v -0.125065 2.126217 0.840251
v 0.169001 1.813952 0.927609
v -0.470481 2.122680 0.739398
v -0.348590 1.813912 0.886841
v -0.754601 2.122674 0.509163
v -0.698447 1.813913 0.691993
v -0.928930 2.122670 0.187798
v -0.998713 1.813948 0.282283
v -0.966987 2.121843 -0.089449
v -1.055490 1.813901 -0.089449
v -0.928930 2.122670 -0.366696
v -0.754601 2.122674 -0.688062
v -0.998713 1.813948 -0.461182
v -0.470481 2.122680 -0.918297
v -0.698447 1.813913 -0.870892
v -0.125065 2.126217 -1.019150
v -0.348590 1.813912 -1.065739
v 0.042053 0.457411 -0.855409
v 0.209334 1.079956 -0.886774
v 0.318180 0.457415 -0.775530
v 0.496170 1.079955 -0.733231
v 0.554130 0.457415 -0.588830
v 0.742580 1.074298 -0.409402
v 0.700626 0.457415 -0.326108
v 0.734560 0.457649 -0.089449
v 0.796995 1.082371 -0.089449
v 0.742580 1.074298 0.230504
v 0.700626 0.457415 0.147210
v 0.554130 0.457415 0.409931
v 0.496170 1.079955 0.554332
v 0.318180 0.457415 0.596632
v 0.209334 1.079956 0.707875
v 0.042053 0.457411 0.676511
v -0.115473 1.097474 0.742924
v -0.244365 0.457415 0.652004
v -0.427194 1.079955 0.645220
v -0.512230 0.457415 0.514894
v -0.678542 1.079954 0.438705
v -0.831676 1.079952 0.151787
v -0.743957 0.456817 0.225577
v -0.801434 0.457649 -0.089449
v -0.863870 1.082371 -0.089449
v -0.831676 1.079952 -0.330686
v -0.743957 0.456817 -0.404475
v -0.678542 1.079954 -0.617603
v -0.512230 0.457415 -0.693792
v -0.427194 1.079955 -0.824118
v -0.244365 0.457415 -0.830903
v -0.115473 1.097474 -0.921822
vn 0.2054 -0.6557 -0.7265
vn 0.6675 -0.6011 -0.4394
vn 0.6675 -0.6011 0.4394
vn 0.2054 -0.6557 0.7265
vn -0.3055 -0.6398 0.7052
vn -0.3055 -0.6398 -0.7052
vn -0.3991 0.4760 0.7836
vn 0.0007 1.0000 0.0014
vn -0.0007 1.0000 -0.0014
vn 0.1340 0.4531 -0.8813
vn 0.6806 0.4635 -0.5674
vn 0.4826 0.6269 0.6116
vn -0.0620 0.6220 -0.7805
vn 0.0718 0.0012 0.9974
vn 0.4760 0.0133 0.8794
vn 0.7979 -0.0009 0.6028
vn 0.7979 -0.0009 -0.6028
vn 0.3276 0.7110 -0.6221
vn 0.4760 0.0133 -0.8794
vn 0.0718 0.0012 -0.9974
vn 0.5522 0.7138 -0.4308
vn 0.5522 0.7138 0.4308
vn 0.3276 0.7110 0.6221
vn 0.0682 0.7161 0.6946
vn -0.2024 0.7162 0.6680
vn -0.4415 0.7129 0.5448
vn -0.6186 0.7105 0.3355
vn -0.6186 0.7105 -0.3355
vn -0.4415 0.7129 -0.5448
vn -0.2024 0.7162 -0.6680
vn 0.0879 -0.2812 -0.9556
vn -0.2736 -0.2742 -0.9219
vn -0.6107 -0.2731 -0.7433
vn -0.8485 -0.2736 -0.4529
vn -0.8485 -0.2736 0.4529
vn -0.6107 -0.2731 0.7433
vn -0.2736 -0.2742 0.9219
vn 0.0879 -0.2812 0.9556
vn 0.0498 -0.6076 -0.7927
vn 0.6759 -0.5309 -0.5112
vn -0.3636 -0.5645 0.7410
vn -0.0941 -0.7797 -0.6190
vn 0.0858 0.3425 -0.9356
vn -0.2680 0.3270 0.9063
vn -0.5951 0.3266 0.7343
vn -0.8310 0.3258 0.4508
vn -0.7904 0.1993 -0.5793
vn -0.4747 0.2196 -0.8523
vn -0.0769 0.2008 -0.9766
vn 0.0682 0.7161 -0.6946
vn -0.2943 -0.0761 -0.9527
vn -0.6331 -0.0748 -0.7705
vn -0.8802 -0.0683 -0.4698
vn -0.7737 -0.1308 0.6199
vn -0.4522 -0.1232 0.8834
vn -0.0846 -0.1234 0.9887
vn 0.1028 -0.0776 0.9917
vn 0.4706 -0.0748 0.8792
vn 0.7935 -0.0664 0.6049
vn 0.8666 -0.1242 -0.4832
vn 0.6158 -0.1232 -0.7782
vn 0.2758 -0.1221 -0.9534
vn 0.3846 -0.5308 -0.7552
vn 0.6676 -0.5612 -0.4893
vn 0.8574 -0.5126 0.0457
vn -0.6529 -0.5345 0.5367
vn 0.6676 -0.5612 0.4893
vn 0.3846 -0.5308 0.7552
vn -0.1330 -0.4659 0.8748
vn -0.8440 -0.5318 0.0691
vn -0.8440 -0.5318 -0.0691
vn -0.6529 -0.5345 -0.5367
vn -0.0003 1.0000 -0.0001
vn -0.1330 -0.4659 -0.8748
vn 0.0002 1.0000 0.0001
vn 0.0002 1.0000 -0.0001
vn 0.0007 1.0000 -0.0014
vn -0.0003 1.0000 0.0001
vn -0.0000 1.0000 0.0005
vn -0.0000 1.0000 -0.0005
vn -0.0007 1.0000 0.0014
vn -0.6355 0.5644 0.5268
vn -0.0847 0.1100 -0.9903
vn -0.7772 0.5966 0.2001
vn 0.1340 0.4531 0.8813
vn 0.4826 0.6269 -0.6116
vn -0.7772 0.5966 -0.2001
vn 0.7168 0.6934 -0.0736
vn -0.6355 0.5644 -0.5268
vn 0.7849 0.5655 0.2533
vn -0.3991 0.4760 -0.7836
vn -0.0620 0.6220 0.7805
vn 0.6806 0.4635 0.5674
vn -0.4511 0.0411 -0.8915
vn -0.0001 1.0000 -0.0000
vn -0.0766 -0.2203 -0.9724
vn -0.7884 0.0525 -0.6129
vn -0.9833 0.0651 -0.1700
vn -0.9833 0.0651 0.1700
vn -0.7884 0.0525 0.6129
vn -0.4511 0.0411 0.8915
vn 0.9871 0.0489 0.1522
vn -0.0847 0.1100 0.9903
vn 0.2765 0.0989 0.9559
vn 0.6174 0.1008 0.7802
vn 0.8689 0.1014 0.4845
vn 0.9871 0.0489 -0.1522
vn 0.6848 0.7203 -0.1102
vn 0.8689 0.1014 -0.4845
vn 0.6174 0.1008 -0.7802
vn 0.1785 0.7546 -0.6314
vn 0.5615 0.7403 -0.3696
vn 0.6848 0.7203 0.1102
vn -0.6768 0.7286 0.1054
vn 0.5615 0.7403 0.3696
vn 0.1785 0.7546 0.6314
vn -0.2661 0.7430 0.6141
vn -0.5237 0.7414 0.4195
vn -0.6768 0.7286 -0.1054
vn -0.9591 -0.2470 -0.1383
vn -0.5237 0.7414 -0.4195
vn -0.2661 0.7430 -0.6141
vn 0.8574 -0.5126 -0.0457
vn -0.4736 -0.2292 -0.8504
vn -0.7868 -0.2203 -0.5766
vn -0.9591 -0.2470 0.1383
vn 0.4475 -0.2388 0.8618
vn -0.7868 -0.2203 0.5766
vn -0.4736 -0.2292 0.8504
vn -0.0766 -0.2203 0.9724
vn 0.7763 -0.2457 0.5805
vn 0.9557 -0.2527 0.1507
vn 0.9557 -0.2527 -0.1507
vn 0.7763 -0.2457 -0.5805
vn 0.4475 -0.2388 -0.8618
vn -0.0002 -1.0000 -0.0000
vn 0.3378 -0.7620 -0.5524
vn 0.6903 -0.7112 -0.1331
vn 0.6903 -0.7112 0.1331
vn 0.3378 -0.7620 0.5524
vn 0.6759 -0.5309 0.5112
vn -0.5425 -0.7200 0.4328
vn 0.0498 -0.6076 0.7927
vn -0.0941 -0.7797 0.6190
vn -0.7235 -0.6809 0.1135
vn -0.7235 -0.6809 -0.1135
vn -0.5425 -0.7200 -0.4328
vn 0.4446 0.2480 -0.8607
vn -0.3636 -0.5645 -0.7410
vn 0.7699 0.2658 -0.5802
vn 0.9465 0.2835 -0.1541
vn 0.9465 0.2835 0.1541
vn 0.7699 0.2658 0.5802
vn 0.4446 0.2480 0.8607
vn -0.9539 0.2661 0.1390
vn 0.0858 0.3425 0.9356
vn -0.0769 0.2008 0.9766
vn -0.4747 0.2196 0.8523
vn -0.7904 0.1993 0.5793
vn -0.9539 0.2661 -0.1390
vn -0.9815 -0.1088 -0.1576
vn -0.8310 0.3258 -0.4508
vn -0.5951 0.3266 -0.7343
vn -0.2680 0.3270 -0.9063
vn -0.0846 -0.1234 -0.9887
vn -0.4522 -0.1232 -0.8834
vn -0.7737 -0.1308 -0.6199
vn -0.9815 -0.1088 0.1576
vn 0.9836 -0.0931 0.1547
vn -0.8802 -0.0683 0.4698
vn -0.6331 -0.0748 0.7705
vn -0.2943 -0.0761 0.9527
vn 0.2758 -0.1221 0.9534
vn 0.6158 -0.1232 0.7782
vn 0.8666 -0.1242 0.4832
vn 0.9836 -0.0931 -0.1547
vn 0.7935 -0.0664 -0.6049
vn 0.4706 -0.0748 -0.8792
vn 0.1028 -0.0776 -0.9917
vn 0.2765 0.0989 -0.9559
vt 0.291125 0.455913
vt 0.387402 0.411481
vt 0.446406 0.325719
vt 0.476086 0.250000
vt 0.750000 1.000000
vt 0.446406 0.174281
vt 0.387402 0.088519
vt 0.291125 0.044087
vt 0.146717 0.069498
vt 0.053594 0.174281
vt 0.250000 1.000000
vt 0.023914 0.250000
vt 0.053594 0.325719
vt 0.146717 0.430502
vt 0.968632 1.000000
vt 0.000000 1.000000
vt 0.296329 0.482002
vt 0.887815 1.000000
vt 0.404791 0.431946
vt 0.471270 0.335317
vt 0.808593 1.000000
vt 0.691407 1.000000
vt 0.471270 0.164683
vt 0.612185 1.000000
vt 0.404791 0.068054
vt 0.531368 1.000000
vt 0.296329 0.017998
vt 0.417325 1.000000
vt 0.133647 0.046625
vt 0.308593 1.000000
vt 0.028730 0.164683
vt 0.191407 1.000000
vt 0.028730 0.335317
vt 0.082675 1.000000
vt 0.133647 0.453375
vt 0.604839 0.925289
vt 0.750000 0.925289
vt 0.895161 0.925289
vt 0.984374 0.925289
vt 0.023086 0.925289
vt 0.183406 0.925289
vt 0.316594 0.925289
vt 0.393431 0.925289
vt 0.484354 0.925289
vt 0.700318 0.925289
vt 0.799682 0.925289
vt 0.106569 0.925289
vt 0.250000 0.925289
vt 0.189478 0.449311
vt 0.342740 0.436138
vt 0.442055 0.335430
vt 0.463029 0.250000
vt 0.442055 0.164570
vt 0.342740 0.063862
vt 0.189478 0.050689
vt 0.069468 0.146752
vt 0.072439 0.352589
vt 0.820589 0.478179
vt 0.952245 0.520788
vt 0.789203 0.446277
vt 0.889744 0.520788
vt 0.902537 0.433795
vt 0.811333 0.520788
vt 0.969587 0.339149
vt 0.915866 0.353215
vt 0.953067 0.250000
vt 0.750000 0.520788
vt 0.989980 0.250205
vt 0.989980 0.249795
vt 0.688667 0.520788
vt 0.969587 0.160851
vt 0.610256 0.520788
vt 0.902537 0.066205
vt 0.915866 0.146785
vt 0.547755 0.520788
vt 0.820589 0.021821
vt 0.789203 0.053723
vt 0.468629 0.520788
vt 0.703560 0.017772
vt 0.389744 0.520788
vt 0.597463 0.066205
vt 0.651543 0.077947
vt 0.311333 0.520788
vt 0.530413 0.160851
vt 0.562777 0.177828
vt 0.546933 0.250000
vt 0.250000 0.520788
vt 0.510020 0.249795
vt 0.510020 0.250205
vt 0.188667 0.520788
vt 0.530413 0.339149
vt 0.562777 0.322172
vt 0.110256 0.520788
vt 0.597463 0.433795
vt 1.000000 0.520788
vt 0.031371 0.520788
vt 0.703560 0.482228
vt 0.651543 0.422053
vt 0.954068 0.863280
vt 0.000000 0.810555
vt 0.968630 0.810555
vt 0.891566 0.863280
vt 0.887815 0.810556
vt 0.813951 0.863279
vt 0.808593 0.810556
vt 0.750000 0.863278
vt 0.750000 0.810556
vt 0.686049 0.863279
vt 0.691407 0.810556
vt 0.608434 0.863280
vt 0.612185 0.810555
vt 0.545932 0.863280
vt 0.484374 0.863280
vt 0.531370 0.810555
vt 0.422817 0.863280
vt 0.450316 0.810555
vt 0.360317 0.863279
vt 0.387815 0.810556
vt 0.297818 0.863278
vt 0.308593 0.810556
vt 0.250000 0.863278
vt 0.250000 0.810556
vt 0.202182 0.863278
vt 0.139683 0.863279
vt 0.191407 0.810556
vt 0.077183 0.863280
vt 0.112185 0.810556
vt 1.000000 0.863281
vt 0.015626 0.863281
vt 0.049684 0.810555
vt 0.000000 0.578353
vt 0.984374 0.578353
vt 0.952986 0.685312
vt 0.924680 0.578353
vt 0.890484 0.685312
vt 0.862180 0.578353
vt 0.812368 0.685311
vt 0.799681 0.578354
vt 0.750000 0.578354
vt 0.750000 0.685311
vt 0.687632 0.685312
vt 0.700319 0.578354
vt 0.637820 0.578353
vt 0.609516 0.685312
vt 0.575320 0.578353
vt 0.547014 0.685312
vt 0.515626 0.578353
vt 0.484374 0.685312
vt 0.455931 0.578353
vt 0.421735 0.685312
vt 0.393430 0.578354
vt 0.359234 0.685312
vt 0.296736 0.685311
vt 0.316593 0.578353
vt 0.250000 0.578354
vt 0.250000 0.685311
vt 0.203264 0.685311
vt 0.183407 0.578354
vt 0.140766 0.685312
vt 0.106570 0.578353
vt 0.078265 0.685312
vt 0.044069 0.578353
vt 0.015626 0.685312
vt 1.000000 0.685312
s 0
f 13/15/1 25/38/1 26/39/1
f 15/21/2 32/46/2 25/38/2
f 31/45/3 16/22/3 23/36/3
f 23/36/4 18/26/4 30/44/4
f 19/28/5 29/43/5 30/44/5
f 33/47/6 22/34/6 26/40/6
f 1/1/7 36/50/7 2/2/7
f 4/4/8 15/20/8 3/3/8
f 10/12/9 20/31/9 9/10/9
f 7/8/10 41/55/10 8/9/10
f 8/9/11 42/56/11 9/10/11
f 12/14/12 43/57/12 35/49/12
f 7/8/13 40/54/13 41/55/13
f 113/147/14 56/78/14 54/75/14
f 111/145/15 54/75/15 52/72/15
f 109/143/16 52/72/16 51/70/16
f 46/61/17 102/136/17 47/63/17
f 68/99/18 25/38/18 70/102/18
f 44/59/19 100/134/19 46/61/19
f 66/95/20 98/132/20 44/59/20
f 70/102/21 25/38/21 72/104/21
f 23/36/22 78/110/22 76/108/22
f 23/36/23 80/112/23 78/110/23
f 30/44/24 81/113/24 80/112/24
f 81/113/25 30/44/25 83/115/25
f 83/115/26 29/43/26 85/117/26
f 85/117/27 28/42/27 87/119/27
f 27/41/28 92/124/28 91/123/28
f 33/47/29 94/126/29 92/124/29
f 26/40/30 96/129/30 94/126/30
f 69/101/31 99/133/31 129/164/31
f 127/161/32 97/130/32 129/163/32
f 125/159/33 95/127/33 127/161/33
f 123/157/34 93/125/34 125/159/34
f 88/120/35 119/153/35 118/152/35
f 86/118/36 118/152/36 116/150/36
f 84/116/37 116/150/37 114/148/37
f 112/146/38 82/114/38 114/148/38
f 44/58/39 45/60/39 66/97/39
f 47/64/40 48/65/40 46/62/40
f 57/81/41 58/82/41 56/79/41
f 66/97/42 45/60/42 67/98/42
f 68/99/43 69/101/43 96/128/43
f 83/115/44 84/116/44 81/113/44
f 85/117/45 86/118/45 83/115/45
f 87/119/46 88/120/46 85/117/46
f 92/124/47 95/127/47 93/125/47
f 94/126/48 97/130/48 95/127/48
f 96/129/49 69/100/49 97/130/49
f 96/128/50 26/39/50 68/99/50
f 129/163/51 128/162/51 127/161/51
f 127/161/52 126/160/52 125/159/52
f 125/159/53 124/158/53 123/157/53
f 118/152/54 120/154/54 117/151/54
f 116/150/55 117/151/55 115/149/55
f 114/148/56 115/149/56 113/147/56
f 114/148/57 113/147/57 112/146/57
f 112/146/58 111/145/58 110/144/58
f 110/144/59 109/143/59 107/141/59
f 103/137/60 104/138/60 102/136/60
f 101/135/61 102/136/61 100/134/61
f 99/133/62 100/134/62 98/132/62
f 13/15/63 14/18/63 25/38/63
f 14/18/64 15/21/64 25/38/64
f 16/22/65 31/45/65 24/37/65 4/5/65
f 28/42/66 29/43/66 19/28/66 20/30/66
f 23/36/67 16/22/67 17/24/67
f 23/36/68 17/24/68 18/26/68
f 18/26/69 19/28/69 30/44/69
f 34/48/70 28/42/70 20/30/70 10/11/70
f 21/32/71 27/41/71 34/48/71 10/11/71
f 22/34/72 33/47/72 27/41/72 21/32/72
f 13/17/73 1/1/73 2/2/73 14/19/73
f 26/40/74 22/34/74 13/16/74
f 14/19/75 2/2/75 3/3/75 15/20/75
f 17/25/76 16/23/76 5/6/76 6/7/76
f 4/4/77 5/6/77 16/23/77
f 18/27/78 17/25/78 6/7/78 7/8/78
f 18/27/78 7/8/78 8/9/78 19/29/78
f 19/29/79 8/9/79 9/10/79 20/31/79
f 22/35/80 21/33/80 11/13/80 12/14/80
f 10/12/81 11/13/81 21/33/81
f 13/17/73 22/35/73 12/14/73 1/1/73
f 37/51/82 3/3/82 2/2/82 36/50/82
f 128/162/83 98/131/83 66/96/83
f 38/52/84 4/4/84 3/3/84 37/51/84
f 1/1/85 12/14/85 35/49/85
f 8/9/86 41/55/86 42/56/86
f 38/52/87 39/53/87 5/6/87 4/4/87
f 43/57/88 10/12/88 9/10/88 42/56/88
f 39/53/89 40/54/89 6/7/89 5/6/89
f 11/13/90 10/12/90 43/57/90
f 7/8/91 6/7/91 40/54/91
f 1/1/92 35/49/92 36/50/92
f 12/14/93 11/13/93 43/57/93
f 66/96/94 65/93/94 126/160/94 128/162/94
f 41/55/95 40/54/95 39/53/95 38/52/95 37/51/95 36/50/95 35/49/95 43/57/95 42/56/95
f 129/163/96 97/130/96 69/100/96
f 65/93/97 63/90/97 124/158/97 126/160/97
f 63/90/98 62/87/98 121/155/98 124/158/98
f 121/155/99 62/87/99 59/83/99 120/154/99
f 120/154/100 59/83/100 57/80/100 117/151/100
f 117/151/101 57/80/101 56/78/101 115/149/101
f 51/70/102 50/67/102 105/139/102 108/142/102
f 56/78/103 113/147/103 115/149/103
f 111/145/104 113/147/104 54/75/104
f 109/143/105 111/145/105 52/72/105
f 108/142/106 109/143/106 51/70/106
f 105/139/107 50/67/107 47/63/107 104/138/107
f 24/37/108 74/106/108 72/104/108 32/46/108
f 47/63/109 102/136/109 104/138/109
f 46/61/110 100/134/110 102/136/110
f 68/99/111 26/39/111 25/38/111
f 72/104/112 25/38/112 32/46/112
f 76/108/113 74/106/113 24/37/113 31/45/113
f 34/48/114 89/121/114 87/119/114 28/42/114
f 31/45/115 23/36/115 76/108/115
f 23/36/116 30/44/116 80/112/116
f 83/115/117 30/44/117 29/43/117
f 85/117/118 29/43/118 28/42/118
f 91/123/119 89/121/119 34/48/119 27/41/119
f 93/125/120 123/157/120 122/156/120 90/122/120
f 27/41/121 33/47/121 92/124/121
f 33/47/122 26/40/122 94/126/122
f 24/37/123 32/46/123 15/21/123 4/5/123
f 127/161/124 95/127/124 97/130/124
f 125/159/125 93/125/125 95/127/125
f 122/156/126 119/153/126 88/120/126 90/122/126
f 82/114/127 112/146/127 110/144/127 79/111/127
f 86/118/128 88/120/128 118/152/128
f 84/116/129 86/118/129 116/150/129
f 82/114/130 84/116/130 114/148/130
f 79/111/131 110/144/131 107/141/131 77/109/131
f 77/109/132 107/141/132 106/140/132 75/107/132
f 106/140/133 103/137/133 73/105/133 75/107/133
f 103/137/134 101/135/134 71/103/134 73/105/134
f 101/135/135 99/133/135 69/101/135 71/103/135
f 55/77/136 58/82/136 60/85/136 61/86/136 64/92/136 67/98/136 45/60/136 48/65/136 49/66/136 53/74/136
f 45/60/137 44/58/137 46/62/137 48/65/137
f 48/65/138 47/64/138 50/68/138 49/66/138
f 53/74/139 49/66/139 50/69/139 51/71/139
f 55/77/140 53/74/140 52/73/140 54/76/140
f 51/71/141 52/73/141 53/74/141
f 58/82/142 57/81/142 59/84/142 60/85/142
f 54/76/143 56/79/143 55/77/143
f 56/79/144 58/82/144 55/77/144
f 60/85/145 59/84/145 62/88/145 61/86/145
f 64/92/146 61/86/146 62/89/146 63/91/146
f 67/98/147 64/92/147 63/91/147 65/94/147
f 69/101/148 68/99/148 70/102/148 71/103/148
f 65/94/149 66/97/149 67/98/149
f 71/103/150 70/102/150 72/104/150 73/105/150
f 73/105/151 72/104/151 74/106/151 75/107/151
f 77/109/152 75/107/152 74/106/152 76/108/152
f 79/111/153 77/109/153 76/108/153 78/110/153
f 82/114/154 79/111/154 78/110/154 80/112/154
f 88/120/155 87/119/155 89/121/155 90/122/155
f 80/112/156 81/113/156 82/114/156
f 81/113/157 84/116/157 82/114/157
f 83/115/158 86/118/158 84/116/158
f 85/117/159 88/120/159 86/118/159
f 93/125/160 90/122/160 89/121/160 91/123/160
f 121/155/161 122/156/161 123/157/161 124/158/161
f 91/123/162 92/124/162 93/125/162
f 92/124/163 94/126/163 95/127/163
f 94/126/164 96/129/164 97/130/164
f 129/163/165 98/131/165 128/162/165
f 127/161/166 128/162/166 126/160/166
f 125/159/167 126/160/167 124/158/167
f 121/155/168 120/154/168 119/153/168 122/156/168
f 105/139/169 106/140/169 107/141/169 108/142/169
f 118/152/170 119/153/170 120/154/170
f 116/150/171 118/152/171 117/151/171
f 114/148/172 116/150/172 115/149/172
f 112/146/173 113/147/173 111/145/173
f 110/144/174 111/145/174 109/143/174
f 107/141/175 109/143/175 108/142/175
f 105/139/176 104/138/176 103/137/176 106/140/176
f 101/135/177 103/137/177 102/136/177
f 99/133/178 101/135/178 100/134/178
f 129/164/179 99/133/179 98/132/179
f 44/59/180 98/132/180 100/134/180
